<svg viewBox="0 0 70 70" fill="none" xmlns="http://www.w3.org/2000/svg">
<rect x="0.5" y="0.5" width="69" height="69" rx="34.5" fill="white"/>
<rect x="0.5" y="0.5" width="69" height="69" rx="34.5" stroke="#008060"/>
<g clip-path="url(#clip0_1259_42054)">
<path d="M44.6437 33.4377L45.3499 32.7314L43.2312 30.6127L39.3499 26.7314L37.2312 24.6127L36.5249 25.3189L35.1124 26.7314L22.6624 39.1814C22.0124 39.8314 21.5374 40.6377 21.2749 41.5189L19.0624 49.0439C18.9062 49.5689 19.0499 50.1377 19.4437 50.5252C19.8374 50.9127 20.3999 51.0564 20.9249 50.9064L28.4437 48.6939C29.3249 48.4314 30.1312 47.9564 30.7812 47.3064L43.2312 34.8564L44.6437 33.4377ZM28.9999 43.9627L28.4312 45.3814C28.1812 45.5752 27.8999 45.7189 27.5999 45.8127L22.7124 47.2502L24.1499 42.3689C24.2374 42.0627 24.3874 41.7814 24.5812 41.5377L25.9999 40.9689V42.9689C25.9999 43.5189 26.4499 43.9689 26.9999 43.9689H28.9999V43.9627ZM41.6687 20.1689L40.7687 21.0752L39.3562 22.4877L38.6437 23.1939L40.7624 25.3127L44.6437 29.1939L46.7624 31.3127L47.4687 30.6064L48.8812 29.1939L49.7874 28.2877C51.3499 26.7252 51.3499 24.1939 49.7874 22.6314L47.3312 20.1689C45.7687 18.6064 43.2374 18.6064 41.6749 20.1689H41.6687ZM38.7062 30.6689L29.7062 39.6689C29.3187 40.0564 28.6812 40.0564 28.2937 39.6689C27.9062 39.2814 27.9062 38.6439 28.2937 38.2564L37.2937 29.2564C37.6812 28.8689 38.3187 28.8689 38.7062 29.2564C39.0937 29.6439 39.0937 30.2814 38.7062 30.6689Z" fill="#008060"/>
</g>
<defs>
<clipPath id="clip0_1259_42054">
<rect width="32" height="32" fill="white" transform="translate(19 19)"/>
</clipPath>
</defs>
</svg>
