<svg viewBox="0 0 40 40" fill="none" xmlns="http://www.w3.org/2000/svg">
<g clip-path="url(#clip0_0_3874)">
<circle cx="20" cy="20" r="19.5" fill="#F9FAFB" stroke="#9CA3AF"/>
<circle cx="20" cy="20" r="19" stroke="#E5E7EB" stroke-width="2"/>
<path d="M20.0005 7.5C25.7562 7.50022 30.6017 11.391 32.0542 16.6855C34.1736 16.8811 35.8334 18.6626 35.8335 20.833C35.8335 23.1342 33.9677 25 31.6665 25C31.5971 25 31.5281 24.9975 31.4595 24.9941C29.5317 29.4113 25.1279 32.4998 20.0005 32.5C14.5566 32.5 9.92546 29.0199 8.21045 24.1631C5.96605 24.0981 4.1665 22.2601 4.1665 20C4.16659 17.7399 5.96609 15.9009 8.21045 15.8359C9.92571 10.9796 14.5569 7.5 20.0005 7.5Z" fill="#E5E7EB"/>
<path d="M16.5771 16.667C17.585 16.6671 18.4373 17.2124 18.8311 18.0029C19.1605 17.9493 19.5473 17.917 20 17.917C20.7616 17.917 21.3363 18.0075 21.7656 18.1416C22.216 17.5216 22.9841 17.1066 23.8369 17.1064C24.3184 17.1064 24.9612 17.4017 25.2822 17.8447C25.3223 17.9555 25.4823 17.9555 25.5225 17.8447C25.8034 17.365 26.4855 17.0703 26.9268 17.0703C28.2909 17.0703 29.3739 18.067 29.4141 19.3223V19.3955C29.4141 20.0601 29.1338 20.6515 28.6523 21.0576V21.0938C28.5721 21.1307 26.6865 22.6812 25.8037 23.3828C25.563 23.5674 25.2017 23.5674 24.9609 23.3828C24.0782 22.6813 22.1524 21.1307 22.1123 21.0938V21.0576C21.6308 20.6146 21.3496 20.0231 21.3496 19.3955V19.3223C21.35 19.3106 21.352 19.2987 21.3525 19.2871C20.9856 19.2134 20.5398 19.167 20 19.167C19.6446 19.167 19.3301 19.1884 19.0518 19.2227C18.9947 19.7929 18.7269 20.2957 18.3018 20.6543V20.6914C18.2152 20.7337 16.3342 22.2803 15.4531 22.9805C15.2125 23.1647 14.8519 23.1647 14.6113 22.9805C13.7308 22.2807 11.8118 20.7355 11.7627 20.6914V20.6543C11.2813 20.2113 11.0001 19.6207 11 18.9932V18.9189C11.0402 17.7007 12.1634 16.7042 13.4873 16.7041C13.9687 16.7041 14.6106 16.9994 14.9316 17.4424C14.9718 17.5531 15.1327 17.5531 15.1729 17.4424C15.4537 16.9624 16.1358 16.667 16.5771 16.667Z" fill="#6B7280"/>
<path d="M17.9165 23.75C18.0554 24.0278 18.6665 24.5833 19.9998 24.5833C21.3332 24.5833 21.9443 24.0278 22.0832 23.75" stroke="#6B7280" stroke-width="1.25" stroke-linecap="round" stroke-linejoin="round"/>
<path d="M17.9939 9.29729C17.5567 9.63985 16.8694 11.0201 17.2481 11.9911C17.6268 12.9621 18.219 13.2026 18.5197 13.28" stroke="#6B7280" stroke-width="0.993658" stroke-linecap="round"/>
<path d="M20.6503 9.98185C20.2124 10.2803 19.898 11.5641 20.3173 12.4612C20.6293 13.1288 21.4273 13.3879 21.6813 13.4532" stroke="#6B7280" stroke-width="0.993658" stroke-linecap="round"/>
<path d="M22.8587 10.4377C22.649 10.7126 22.8027 11.505 23.1629 12.0414C23.3758 12.3586 24.0207 12.8217 24.1914 12.8099" stroke="#6B7280" stroke-width="0.991667" stroke-linecap="round"/>
</g>
<defs>
<clipPath id="clip0_0_3874">
<rect width="40" height="40" fill="white"/>
</clipPath>
</defs>
</svg>
